# xmcd
#
# Track frame offsets:
#	150
#	10107
#	21057
#	29813
#	39386
#	52732
#	61072
#	71505
#	82342
#	94683
#	110125
#	120464
#	128995
#	140307
#	150305
#	161022
#	169658
#	181243
#	190585
#
# Disc length: 2663 seconds
#
# Revision: 1
# Processed by: cddbd v1.5.2PL0 Copyright (c) Steve Scherf et al.
# Submitted via: audiograbber 1.83.01
#
DISCID=f10a6513
DTITLE=jimmie driftwood - six classix albums cd2
DYEAR=2014
DGENRE=Country
TTITLE0=four little girls of boston
TTITLE1=slack your rope
TTITLE2=run johnny run
TTITLE3=arkansas traveler
TTITLE4=damnyankee lad
TTITLE5=the land where the blue grass grows
TTITLE6=the widders of bowling green
TTITLE7=mooshatanio
TTITLE8=sweet betsy from pike
TTITLE9=the wilderness road
TTITLE10=song of the pioneer
TTITLE11=shoot the buffalo
TTITLE12=get along boys
TTITLE13=jordan am a hard road to travel
TTITLE14=the marshall of silver city
TTITLE15=the pony express (i've got to carry the mail)
TTITLE16=i'm leavin' on the wagon train
TTITLE17=grapevine news (1953)
TTITLE18=precious peace of mine (1953)
EXTD=
EXTT0=
EXTT1=
EXTT2=
EXTT3=
EXTT4=
EXTT5=
EXTT6=
EXTT7=
EXTT8=
EXTT9=
EXTT10=
EXTT11=
EXTT12=
EXTT13=
EXTT14=
EXTT15=
EXTT16=
EXTT17=
EXTT18=
PLAYORDER=
